<?xml version="1.0" encoding="utf-8"?>
<!-- Generator: Adobe Illustrator 23.0.6, SVG Export Plug-In . SVG Version: 6.00 Build 0)  -->
<svg version="1.1" id="Layer_1" xmlns="http://www.w3.org/2000/svg" xmlns:xlink="http://www.w3.org/1999/xlink" x="0px" y="0px"
	 viewBox="0 0 39 39.5" style="enable-background:new 0 0 39 39.5;" xml:space="preserve">
<style type="text/css">
	.st0{fill:#FC6767;}
</style>
<g>
	<g id="Group_1668" transform="translate(1216.725 762.219) rotate(45)">
		<g id="Rectangle_2186">
			
				<rect x="-1381.1" y="319.6" transform="matrix(2.535182e-06 1 -1 2.535182e-06 -1050.0386 1693.1228)" class="st0" width="19.1" height="3.8"/>
		</g>
		<g id="Rectangle_2187">
			
				<rect x="-1373.5" y="312" transform="matrix(2.535182e-06 1 -1 2.535182e-06 -1050.0386 1693.1228)" class="st0" width="3.8" height="19.1"/>
		</g>
	</g>
	<path class="st0" d="M19.5,38.2c-10.2,0-18.4-8.3-18.4-18.4S9.3,1.3,19.5,1.3S38,9.6,38,19.7S29.7,38.2,19.5,38.2z M19.5,3.3
		c-9.1,0-16.4,7.4-16.4,16.4s7.4,16.4,16.4,16.4S36,28.8,36,19.7S28.6,3.3,19.5,3.3z"/>
</g>
</svg>
