<?xml version="1.0" encoding="utf-8"?>
<!-- Generator: Adobe Illustrator 23.0.6, SVG Export Plug-In . SVG Version: 6.00 Build 0)  -->
<svg version="1.1" id="Layer_1" xmlns="http://www.w3.org/2000/svg" xmlns:xlink="http://www.w3.org/1999/xlink" x="0px" y="0px"
	 viewBox="0 0 39 39.5" style="enable-background:new 0 0 39 39.5;" xml:space="preserve">
<style type="text/css">
	.st0{fill:#F2D595;}
</style>
<g>
	<path class="st0" d="M19.5,38.2c-10.2,0-18.4-8.3-18.4-18.4S9.3,1.3,19.5,1.3S38,9.6,38,19.7S29.7,38.2,19.5,38.2z M19.5,3.3
		c-9.1,0-16.4,7.4-16.4,16.4s7.4,16.4,16.4,16.4S36,28.8,36,19.7S28.6,3.3,19.5,3.3z"/>
	<g>
		<path class="st0" d="M24.1,10.6l2.7,2.7l0,0l-9.3,9.3l0,0l0,0c-1.5-1.5-1.5-3.9,0-5.4c0,0,0,0,0,0L24.1,10.6L24.1,10.6z"/>
		<rect x="12" y="24.6" class="st0" width="15.1" height="1.8"/>
	</g>
</g>
</svg>
