<?xml version="1.0" encoding="utf-8"?>
<!-- Generator: Adobe Illustrator 23.0.6, SVG Export Plug-In . SVG Version: 6.00 Build 0)  -->
<svg version="1.1" id="Layer_1" xmlns="http://www.w3.org/2000/svg" xmlns:xlink="http://www.w3.org/1999/xlink" x="0px" y="0px"
	 viewBox="0 0 37.5 32.1" style="enable-background:new 0 0 37.5 32.1;" xml:space="preserve">
<style type="text/css">
	.st0{fill:#F26768;}
</style>
<path class="st0" d="M31.5,5.9c-1.8-1.7-4.1-2.6-6.6-2.6c-1.1,0.1-2.3,0.3-3.3,0.8c0,0.1,0,0.2,0,0.3c-0.3,1.5-0.6,2.9-1,4.3
	c0.3,0,0.5-0.1,0.8-0.1l0.5-0.1c0.8-0.1,1.5,0.5,1.6,1.3c0,0.2,0,0.3,0,0.5c-0.5,2-1.1,4.1-1.7,6.1c-0.3,1-0.6,2-0.9,3
	c-0.3,1-0.7,2-1,3c0-1.1,0-2.1,0-3.2c0-1.1,0.1-2.1,0.1-3.2c0.1-1.1,0.1-2.2,0.2-3.3c-0.8,0.4-1.6,0.8-2.4,1.1c-1.1,0.5-2.5,0-3-1.2
	c-0.2-0.5-0.2-0.9-0.1-1.4l0.1-0.4c0.5-2.2,1.1-4.4,2-6.5c-1.3-0.7-2.7-1.1-4.2-1.2c-2.4,0-4.8,0.9-6.6,2.6C4.1,7.6,3.1,10,3.1,12.5
	c0,3.6,2.5,7.5,7.5,11.4c2.2,1.7,4.5,3.2,7,4.6c0.3,0.2,0.7,0.3,1.1,0.3c0.4,0,0.8-0.1,1.1-0.3c2.5-1.3,4.8-2.8,7-4.6
	c5-3.9,7.6-7.8,7.6-11.4C34.4,10,33.4,7.6,31.5,5.9z"/>
</svg>
