<?xml version="1.0" encoding="utf-8"?>
<!-- Generator: Adobe Illustrator 23.0.6, SVG Export Plug-In . SVG Version: 6.00 Build 0)  -->
<svg version="1.1" id="Layer_1" xmlns="http://www.w3.org/2000/svg" xmlns:xlink="http://www.w3.org/1999/xlink" x="0px" y="0px"
	 viewBox="0 0 37.5 32.1" style="enable-background:new 0 0 37.5 32.1;" xml:space="preserve">
<style type="text/css">
	.st0{fill:#F26768;}
</style>
<path id="Path_3118" class="st0" d="M18.7,28.8c-0.4,0-0.8-0.1-1.1-0.3c-2.5-1.3-4.8-2.9-7-4.6c-5-3.9-7.5-7.8-7.5-11.4
	C3.1,10,4.1,7.6,6,5.9c1.8-1.7,4.1-2.6,6.6-2.6c2.3,0.2,4.5,1.1,6.2,2.7c1.7-1.6,3.9-2.5,6.2-2.7c2.4,0,4.8,0.9,6.6,2.6
	c1.9,1.7,2.9,4.1,2.9,6.7c0,3.7-2.5,7.5-7.6,11.4c-2.2,1.7-4.6,3.2-7,4.6C19.5,28.7,19.1,28.8,18.7,28.8z"/>
</svg>
