<?xml version="1.0" encoding="utf-8"?>
<!-- Generator: Adobe Illustrator 23.0.6, SVG Export Plug-In . SVG Version: 6.00 Build 0)  -->
<svg version="1.1" id="Layer_1" xmlns="http://www.w3.org/2000/svg" xmlns:xlink="http://www.w3.org/1999/xlink" x="0px" y="0px"
	 viewBox="0 0 37.5 32.1" style="enable-background:new 0 0 37.5 32.1;" xml:space="preserve">
<style type="text/css">
	.st0{fill:#FFFFFF;}
</style>
<path class="st0" d="M18.7,29.8c-0.5,0-1.1-0.1-1.6-0.4c-2.5-1.4-4.9-2.9-7.2-4.7c-5.3-4.1-7.9-8.2-7.9-12.2c0-2.8,1.2-5.5,3.2-7.4
	c2-1.8,4.5-2.8,7.2-2.9c2.3,0.1,4.4,1,6.2,2.3c1.7-1.4,3.9-2.2,6.1-2.3c2.8,0,5.3,1,7.3,2.9c2.1,1.9,3.2,4.6,3.2,7.4
	c0,4-2.7,8.1-8,12.2c-2.2,1.7-4.7,3.3-7.2,4.6C19.8,29.7,19.3,29.8,18.7,29.8L18.7,29.8C18.7,29.8,18.7,29.8,18.7,29.8z M12.5,4.3
	c-2.1,0-4.2,0.8-5.8,2.3C5,8.1,4.1,10.3,4.1,12.5c0,3.3,2.4,6.9,7.2,10.6c2.2,1.7,4.5,3.2,6.9,4.5c0.2,0.1,0.4,0.1,0.6,0.1l0,0
	c0.2,0,0.4-0.1,0.6-0.2c2.4-1.3,4.7-2.8,6.9-4.5c4.8-3.7,7.2-7.3,7.2-10.6c0-2.2-0.9-4.4-2.6-5.9c-1.6-1.5-3.7-2.3-5.9-2.3
	c-2,0.1-4,1-5.5,2.4l-0.7,0.6l-0.7-0.6C16.5,5.3,14.6,4.4,12.5,4.3z"/>
</svg>
